<svg width="37" height="32" viewBox="0 0 37 32" fill="none" xmlns="http://www.w3.org/2000/svg">
<g filter="url(#filter0_d_909_371)">
<path fill-rule="evenodd" clip-rule="evenodd" d="M6.44777 0.00141054C5.06819 -0.0449743 3.94084 1.05885 4.00241 2.39575L4.62637 15.9454C4.68436 17.2048 5.78003 18.1827 7.0795 18.1349L20.6305 17.636C21.5916 18.4922 23.0417 19.7496 24.2816 20.6818C26.3469 22.2345 29.6836 23.5333 29.6836 23.5333C29.6836 23.5333 28.2015 21.213 27.4849 19.3742C27.227 18.7122 27.1119 18.0173 27.0704 17.3989L29.3105 17.3165C30.4907 17.273 31.4571 16.3923 31.5747 15.2529L32.8044 3.33145C32.9404 2.01278 31.8986 0.857128 30.5324 0.811193L6.44777 0.00141054Z" fill="white"/>
<path d="M17.6143 11.8331L13.1923 9.23584V12.0316L17.6143 14.5564L22.0364 12.0316V9.23584L17.6143 11.8331Z" fill="#FF6827"/>
<path d="M24.7576 6.89792L17.6143 2.98438L10.4709 6.89792L17.6143 10.8115L23.4126 7.63476V12.0294H24.7507V6.90166L24.7576 6.89792Z" fill="#FF6827"/>
</g>
<defs>
<filter id="filter0_d_909_371" x="0" y="0" width="36.8163" height="31.5332" filterUnits="userSpaceOnUse" color-interpolation-filters="sRGB">
<feFlood flood-opacity="0" result="BackgroundImageFix"/>
<feColorMatrix in="SourceAlpha" type="matrix" values="0 0 0 0 0 0 0 0 0 0 0 0 0 0 0 0 0 0 127 0" result="hardAlpha"/>
<feOffset dy="4"/>
<feGaussianBlur stdDeviation="2"/>
<feComposite in2="hardAlpha" operator="out"/>
<feColorMatrix type="matrix" values="0 0 0 0 0 0 0 0 0 0 0 0 0 0 0 0 0 0 0.25 0"/>
<feBlend mode="normal" in2="BackgroundImageFix" result="effect1_dropShadow_909_371"/>
<feBlend mode="normal" in="SourceGraphic" in2="effect1_dropShadow_909_371" result="shape"/>
</filter>
</defs>
</svg>
