<svg width="26" height="29" viewBox="0 0 26 29" fill="none" xmlns="http://www.w3.org/2000/svg">
<g filter="url(#filter0_d_909_375)">
<path d="M21.6216 14.4989C21.5438 14.4052 21.4675 14.3114 21.3926 14.2209C20.3622 12.9736 19.7388 12.2208 19.7388 8.68969C19.7388 6.86156 19.3018 5.36156 18.4405 4.23656C17.8054 3.40547 16.9469 2.775 15.8154 2.30906C15.8008 2.30096 15.7878 2.29032 15.777 2.27766C15.37 0.913594 14.2562 0 13.0001 0C11.744 0 10.6307 0.913594 10.2237 2.27625C10.2128 2.28845 10.2 2.29875 10.1858 2.30672C7.54519 3.39469 6.26189 5.48203 6.26189 8.68828C6.26189 12.2208 5.63945 12.9736 4.60813 14.2195C4.5332 14.31 4.45685 14.4019 4.37911 14.4975C4.17828 14.7399 4.05103 15.0348 4.01244 15.3473C3.97384 15.6598 4.02551 15.9769 4.16132 16.2609C4.4503 16.8703 5.06618 17.2486 5.76918 17.2486H20.2362C20.9359 17.2486 21.5476 16.8708 21.8375 16.2642C21.9739 15.9801 22.0261 15.6628 21.9878 15.3499C21.9495 15.037 21.8224 14.7417 21.6216 14.4989ZM13.0001 21C13.6769 20.9995 14.3409 20.8156 14.9218 20.4679C15.5026 20.1202 15.9786 19.6217 16.2992 19.0252C16.3143 18.9966 16.3218 18.9646 16.3209 18.9322C16.32 18.8999 16.3107 18.8684 16.294 18.8407C16.2773 18.813 16.2538 18.7901 16.2256 18.7742C16.1975 18.7583 16.1657 18.75 16.1334 18.75H9.86776C9.83541 18.7499 9.80358 18.7582 9.77537 18.774C9.74716 18.7899 9.72354 18.8128 9.7068 18.8405C9.69005 18.8682 9.68077 18.8997 9.67984 18.9321C9.67891 18.9645 9.68637 18.9965 9.70149 19.0252C10.0221 19.6216 10.498 20.1201 11.0787 20.4678C11.6595 20.8155 12.3234 20.9994 13.0001 21Z" fill="white"/>
</g>
<defs>
<filter id="filter0_d_909_375" x="0" y="0" width="26" height="29" filterUnits="userSpaceOnUse" color-interpolation-filters="sRGB">
<feFlood flood-opacity="0" result="BackgroundImageFix"/>
<feColorMatrix in="SourceAlpha" type="matrix" values="0 0 0 0 0 0 0 0 0 0 0 0 0 0 0 0 0 0 127 0" result="hardAlpha"/>
<feOffset dy="4"/>
<feGaussianBlur stdDeviation="2"/>
<feComposite in2="hardAlpha" operator="out"/>
<feColorMatrix type="matrix" values="0 0 0 0 0 0 0 0 0 0 0 0 0 0 0 0 0 0 0.25 0"/>
<feBlend mode="normal" in2="BackgroundImageFix" result="effect1_dropShadow_909_375"/>
<feBlend mode="normal" in="SourceGraphic" in2="effect1_dropShadow_909_375" result="shape"/>
</filter>
</defs>
</svg>
